name not saved
datacolumns 19
datarows 46
range 18.76 18.805
endheader
time	ground_force1_vx	ground_force1_vy	ground_force1_vz	ground_force1_px	ground_force1_py	ground_force1_pz	ground_force2_vx	ground_force2_vy	ground_force2_vz	ground_force2_px	ground_force2_py	ground_force2_pz	ground_torque1_x	ground_torque1_y	ground_torque1_z	ground_torque2_x	ground_torque2_y	ground_torque2_z
18.76	-1.871659681	415.9313456	-0.02575458745	-0.1231450452	0	0.2439308015	7.038264591	381.6709653	18.90714326	-0.214354468	0	-0.239873117	0	0.8539155482	0	0	1.671519016	0
18.761	-1.832093684	416.1331008	-0.1457327185	-0.1231493127	0	0.2438551553	7.035091286	381.5423604	18.89424159	-0.2143514068	0	-0.2398683491	0	0.8319321562	0	0	1.669954418	0
18.762	-1.791658167	416.3383129	-0.2677308233	-0.1231549697	0	0.2437791737	7.031511555	381.414433	18.88161638	-0.2143484085	0	-0.2398636392	0	0.8097470786	0	0	1.668260133	0
18.763	-1.750389128	416.5468839	-0.3916365421	-0.1231619576	0	0.2437028981	7.027542333	381.2871342	18.86924291	-0.2143454633	0	-0.2398589853	0	0.7873824155	0	0	1.666439492	0
18.764	-1.708323823	416.7587122	-0.5173372418	-0.1231702171	0	0.2436263701	7.023200425	381.1604137	18.85709553	-0.2143425616	0	-0.2398543853	0	0.7648602426	0	0	1.664495885	0
18.765	-1.665500725	416.9736925	-0.6447201382	-0.1231796886	0	0.2435496309	7.018502469	381.0342205	18.84514774	-0.2143396934	0	-0.239849837	0	0.7422025878	0	0	1.662432756	0
18.766	-1.621959496	417.1917163	-0.7736724163	-0.1231903122	0	0.2434727213	7.013464899	380.9085028	18.83337221	-0.214336849	0	-0.2398453381	0	0.7194314071	0	0	1.660253599	0
18.767	-1.577740937	417.412672	-0.9040813505	-0.123202028	0	0.2433956819	7.008103899	380.7832081	18.82174089	-0.2143340188	0	-0.2398408865	0	0.6965685604	0	0	1.657961945	0
18.768	-1.53288695	417.6364449	-1.035834423	-0.1232147757	0	0.2433185528	7.002435371	380.6582837	18.81022501	-0.214331193	0	-0.2398364796	0	0.6736357879	0	0	1.655561361	0
18.769	-1.487440489	417.8629178	-1.168819442	-0.1232284949	0	0.2432413736	6.996474891	380.5336769	18.79879521	-0.2143283621	0	-0.2398321151	0	0.6506546863	0	0	1.653055438	0
18.77	-1.441445514	418.0919708	-1.302924655	-0.1232431256	0	0.2431641836	6.990237676	380.4093349	18.78742156	-0.2143255167	0	-0.2398277903	0	0.6276466851	0	0	1.650447784	0
18.771	-1.394946933	418.3234819	-1.438038864	-0.1232586073	0	0.2430870214	6.983738541	380.2852054	18.77607365	-0.2143226474	0	-0.2398235026	0	0.604633023	0	0	1.647742017	0
18.772	-1.347990556	418.5573268	-1.574051539	-0.1232748802	0	0.2430099251	6.97699187	380.1612366	18.76472067	-0.2143197452	0	-0.2398192495	0	0.5816347244	0	0	1.644941757	0
18.773	-1.300623027	418.7933796	-1.710852924	-0.1232918843	0	0.242932932	6.970011571	380.0373774	18.75333146	-0.2143168011	0	-0.2398150279	0	0.5586725765	0	0	1.642050614	0
18.774	-1.252891773	419.0315127	-1.848334151	-0.1233095601	0	0.2428560791	6.962811048	379.9135775	18.74187459	-0.2143138062	0	-0.2398108352	0	0.5357671063	0	0	1.639072184	0
18.775	-1.204844938	419.2715971	-1.986387339	-0.1233278484	0	0.2427794023	6.955403166	379.7897879	18.73031846	-0.214310752	0	-0.2398066684	0	0.512938558	0	0	1.636010038	0
18.776	-1.156531318	419.5135026	-2.124905701	-0.1233466903	0	0.2427029371	6.947800215	379.6659611	18.71863134	-0.2143076301	0	-0.2398025245	0	0.4902068707	0	0	1.632867714	0
18.777	-1.108000296	419.7570982	-2.263783646	-0.1233660276	0	0.242626718	6.940013879	379.5420507	18.70678148	-0.2143044326	0	-0.2397984003	0	0.4675916566	0	0	1.629648706	0
18.778	-1.059301774	420.002252	-2.402916874	-0.1233858024	0	0.2425507789	6.932055206	379.4180124	18.69473717	-0.2143011516	0	-0.2397942929	0	0.4451121799	0	0	1.626356458	0
18.779	-1.010486098	420.248832	-2.542202474	-0.1234059577	0	0.2424751528	6.923934579	379.2938037	18.68246682	-0.2142977795	0	-0.2397901988	0	0.4227873354	0	0	1.622994354	0
18.78	-0.961603993	420.4967056	-2.681539018	-0.123426437	0	0.2423998719	6.915661684	379.1693842	18.66993907	-0.2142943091	0	-0.2397861149	0	0.4006356291	0	0	1.61956571	0
18.781	-0.9127064849	420.7457405	-2.82082665	-0.1234471844	0	0.2423249674	6.907245486	379.0447155	18.6571228	-0.2142907336	0	-0.2397820378	0	0.3786751581	0	0	1.616073763	0
18.782	-0.863844827	420.9958044	-2.959967171	-0.123468145	0	0.2422504698	6.8986942	378.919762	18.64398728	-0.2142870463	0	-0.2397779641	0	0.3569235917	0	0	1.612521668	0
18.783	-0.8150704245	421.2467655	-3.09886413	-0.1234892646	0	0.2421764085	6.89001527	378.7944905	18.63050221	-0.2142832411	0	-0.2397738904	0	0.3353981538	0	0	1.608912482	0
18.784	-0.7664347579	421.4984929	-3.237422898	-0.1235104902	0	0.2421028121	6.881215341	378.6688705	18.61663781	-0.2142793119	0	-0.239769813	0	0.3141156051	0	0	1.605249161	0
18.785	-0.7179893057	421.7508563	-3.375550752	-0.1235317693	0	0.2420297082	6.872300241	378.5428743	18.60236489	-0.2142752534	0	-0.2397657285	0	0.2930922272	0	0	1.601534553	0
18.786	-0.6697854667	422.0037266	-3.513156947	-0.1235530507	0	0.2419571235	6.86327496	378.4164775	18.58765493	-0.2142710603	0	-0.2397616331	0	0.2723438066	0	0	1.597771384	0
18.787	-0.6218744821	422.2569762	-3.650152789	-0.1235742842	0	0.2418850835	6.854143631	378.2896585	18.57248013	-0.214266728	0	-0.2397575234	0	0.2518856208	0	0	1.593962258	0
18.788	-0.5743073578	422.5104788	-3.786451702	-0.1235954208	0	0.2418136131	6.844909514	378.162399	18.55681352	-0.2142622521	0	-0.2397533955	0	0.2317324242	0	0	1.590109645	0
18.789	-0.5271347861	422.7641099	-3.921969295	-0.1236164124	0	0.2417427357	6.835574981	378.0346842	18.54062901	-0.2142576287	0	-0.2397492457	0	0.2118984359	0	0	1.586215878	0
18.79	-0.4804070689	423.0177471	-4.05662342	-0.1236372123	0	0.2416724742	6.826141502	377.9065026	18.52390144	-0.2142528543	0	-0.2397450703	0	0.1923973283	0	0	1.582283142	0
18.791	-0.4341740405	423.2712698	-4.190334233	-0.1236577749	0	0.2416028501	6.816609637	377.7778463	18.50660669	-0.2142479257	0	-0.2397408655	0	0.1732422162	0	0	1.578313474	0
18.792	-0.3884849918	423.52456	-4.323024244	-0.1236780561	0	0.241533884	6.806979023	377.6487109	18.48872169	-0.2142428403	0	-0.2397366275	0	0.154445648	0	0	1.574308754	0
18.793	-0.3433885953	423.7775018	-4.454618372	-0.1236980128	0	0.2414655955	6.797248368	377.5190957	18.47022451	-0.2142375958	0	-0.2397323525	0	0.1360195969	0	0	1.570270699	0
18.794	-0.298932831	424.0299825	-4.585043986	-0.1237176034	0	0.2413980032	6.787415447	377.3890039	18.45109442	-0.2142321906	0	-0.2397280367	0	0.1179754538	0	0	1.566200863	0
18.795	-0.2551649144	424.2818916	-4.71423095	-0.1237367878	0	0.2413311244	6.777477098	377.2584421	18.43131192	-0.2142266232	0	-0.2397236763	0	0.100324021	0	0	1.562100632	0
18.796	-0.2121312254	424.5331219	-4.842111662	-0.1237555271	0	0.2412649758	6.767429222	377.1274211	18.41085881	-0.2142208928	0	-0.2397192675	0	0.08307550732	0	0	1.557971217	0
18.797	-0.1698772394	424.7835694	-4.968621084	-0.1237737838	0	0.2411995727	6.757266782	376.9959552	18.38971825	-0.2142149988	0	-0.2397148065	0	0.06623952379	0	0	1.553813658	0
18.798	-0.1284474603	425.0331329	-5.093696775	-0.1237915221	0	0.2411349295	6.746983809	376.8640627	18.36787475	-0.2142089413	0	-0.2397102896	0	0.04982508076	0	0	1.549628815	0
18.799	-0.08788535555	425.281715	-5.217278918	-0.1238087075	0	0.2410710596	6.736573406	376.7317657	18.34531429	-0.2142027207	0	-0.239705713	0	0.033840586	0	0	1.545417371	0
18.8	-0.04823329409	425.5292216	-5.339310335	-0.1238253069	0	0.2410079754	6.726027754	376.5990901	18.32202429	-0.2141963379	0	-0.2397010732	0	0.01829384393	0	0	1.541179829	0
18.801	-0.009532486251	425.7755621	-5.459736511	-0.1238412889	0	0.2409456881	6.715338125	376.4660657	18.29799366	-0.2141897942	0	-0.2396963664	0	0.003192055928	0	0	1.536916514	0
18.802	0.0281770731	426.0206499	-5.578505604	-0.1238566236	0	0.2408842081	6.704494894	376.3327259	18.27321285	-0.2141830915	0	-0.239691589	0	-0.01145817826	0	0	1.532627569	0
18.803	0.06485665866	426.2644018	-5.695568449	-0.1238712825	0	0.2408235448	6.69348755	376.199108	18.24767388	-0.2141762318	0	-0.2396867377	0	-0.02565085802	0	0	1.528312957	0
18.804	0.1004688656	426.5067388	-5.810878569	-0.1238852387	0	0.2407637064	6.682304715	376.0652528	18.22137032	-0.2141692178	0	-0.239681809	0	-0.03938057828	0	0	1.523972463	0
18.805	0.1349776573	426.7475856	-5.924392171	-0.1238984669	0	0.2407047005	6.670934163	375.931205	18.19429734	-0.2141620526	0	-0.2396767994	0	-0.05264252487	0	0	1.519605698	0
